<svg width="151" height="66" viewBox="0 0 151 66" fill="none" xmlns="http://www.w3.org/2000/svg">
<rect x="0.223633" y="16.6641" width="150.145" height="48.6514" rx="24.3257" fill="black"/>
<path fill-rule="evenodd" clip-rule="evenodd" d="M124.374 58.8857C133.713 58.8857 141.284 51.1967 141.284 41.7119C141.284 32.2271 133.713 24.5381 124.374 24.5381C115.035 24.5381 107.465 32.2271 107.465 41.7119C107.465 51.1967 115.035 58.8857 124.374 58.8857ZM124.374 55.7369C132.778 55.7369 139.591 48.8175 139.591 40.2819C139.591 31.7465 132.778 24.8271 124.374 24.8271C115.97 24.8271 109.157 31.7465 109.157 40.2819C109.157 48.8175 115.97 55.7369 124.374 55.7369Z" fill="#004856"/>
<path fill-rule="evenodd" clip-rule="evenodd" d="M124.374 58.8857C133.713 58.8857 141.284 51.1967 141.284 41.7119C141.284 32.2271 133.713 24.5381 124.374 24.5381C115.035 24.5381 107.465 32.2271 107.465 41.7119C107.465 51.1967 115.035 58.8857 124.374 58.8857ZM124.374 55.7369C132.778 55.7369 139.591 48.8175 139.591 40.2819C139.591 31.7465 132.778 24.8271 124.374 24.8271C115.97 24.8271 109.157 31.7465 109.157 40.2819C109.157 48.8175 115.97 55.7369 124.374 55.7369Z" fill="url(#paint0_radial_2676_71697)"/>
<path fill-rule="evenodd" clip-rule="evenodd" d="M124.374 58.8857C133.713 58.8857 141.284 51.1967 141.284 41.7119C141.284 32.2271 133.713 24.5381 124.374 24.5381C115.035 24.5381 107.465 32.2271 107.465 41.7119C107.465 51.1967 115.035 58.8857 124.374 58.8857ZM124.374 55.7369C132.778 55.7369 139.591 48.8175 139.591 40.2819C139.591 31.7465 132.778 24.8271 124.374 24.8271C115.97 24.8271 109.157 31.7465 109.157 40.2819C109.157 48.8175 115.97 55.7369 124.374 55.7369Z" fill="url(#paint1_radial_2676_71697)"/>
<path d="M14.0061 41.8293L12.8811 38.9143C12.8478 38.8276 12.8128 38.7276 12.7761 38.6143C12.7395 38.4976 12.7045 38.3743 12.6711 38.2443C12.6011 38.5143 12.5295 38.7393 12.4561 38.9193L11.3311 41.8293H14.0061ZM16.0261 44.4893H15.2761C15.1895 44.4893 15.1195 44.4676 15.0661 44.4243C15.0128 44.3809 14.9728 44.3259 14.9461 44.2593L14.2761 42.5293H11.0611L10.3911 44.2593C10.3711 44.3193 10.3328 44.3726 10.2761 44.4193C10.2195 44.4659 10.1495 44.4893 10.0661 44.4893H9.31613L12.1811 37.3243H13.1611L16.0261 44.4893ZM19.7087 40.2593C19.6687 40.3326 19.607 40.3693 19.5237 40.3693C19.4737 40.3693 19.417 40.3509 19.3537 40.3143C19.2904 40.2776 19.212 40.2376 19.1187 40.1943C19.0287 40.1476 18.9204 40.1059 18.7937 40.0693C18.667 40.0293 18.517 40.0093 18.3437 40.0093C18.1937 40.0093 18.0587 40.0293 17.9387 40.0693C17.8187 40.1059 17.7154 40.1576 17.6287 40.2243C17.5454 40.2909 17.4804 40.3693 17.4337 40.4593C17.3904 40.5459 17.3687 40.6409 17.3687 40.7443C17.3687 40.8743 17.4054 40.9826 17.4787 41.0693C17.5554 41.1559 17.6554 41.2309 17.7787 41.2943C17.902 41.3576 18.042 41.4143 18.1987 41.4643C18.3554 41.5109 18.5154 41.5626 18.6787 41.6193C18.8454 41.6726 19.007 41.7326 19.1637 41.7993C19.3204 41.8659 19.4604 41.9493 19.5837 42.0493C19.707 42.1493 19.8054 42.2726 19.8787 42.4193C19.9554 42.5626 19.9937 42.7359 19.9937 42.9393C19.9937 43.1726 19.952 43.3893 19.8687 43.5893C19.7854 43.7859 19.662 43.9576 19.4987 44.1043C19.3354 44.2476 19.1354 44.3609 18.8987 44.4443C18.662 44.5276 18.3887 44.5693 18.0787 44.5693C17.7254 44.5693 17.4054 44.5126 17.1187 44.3993C16.832 44.2826 16.5887 44.1343 16.3887 43.9543L16.5987 43.6143C16.6254 43.5709 16.657 43.5376 16.6937 43.5143C16.7304 43.4909 16.777 43.4793 16.8337 43.4793C16.8937 43.4793 16.957 43.5026 17.0237 43.5493C17.0904 43.5959 17.1704 43.6476 17.2637 43.7043C17.3604 43.7609 17.477 43.8126 17.6137 43.8593C17.7504 43.9059 17.9204 43.9293 18.1237 43.9293C18.297 43.9293 18.4487 43.9076 18.5787 43.8643C18.7087 43.8176 18.817 43.7559 18.9037 43.6793C18.9904 43.6026 19.0537 43.5143 19.0937 43.4143C19.137 43.3143 19.1587 43.2076 19.1587 43.0943C19.1587 42.9543 19.1204 42.8393 19.0437 42.7493C18.9704 42.6559 18.872 42.5776 18.7487 42.5143C18.6254 42.4476 18.4837 42.3909 18.3237 42.3443C18.167 42.2943 18.0054 42.2426 17.8387 42.1893C17.6754 42.1359 17.5137 42.0759 17.3537 42.0093C17.197 41.9393 17.057 41.8526 16.9337 41.7493C16.8104 41.6459 16.7104 41.5193 16.6337 41.3693C16.5604 41.2159 16.5237 41.0309 16.5237 40.8143C16.5237 40.6209 16.5637 40.4359 16.6437 40.2593C16.7237 40.0793 16.8404 39.9226 16.9937 39.7893C17.147 39.6526 17.3354 39.5443 17.5587 39.4643C17.782 39.3843 18.037 39.3443 18.3237 39.3443C18.657 39.3443 18.9554 39.3976 19.2187 39.5043C19.4854 39.6076 19.7154 39.7509 19.9087 39.9343L19.7087 40.2593ZM21.9799 37.1243V41.4593H22.2099C22.2765 41.4593 22.3315 41.4509 22.3749 41.4343C22.4215 41.4143 22.4699 41.3759 22.5199 41.3193L24.1199 39.6043C24.1665 39.5476 24.2149 39.5043 24.2649 39.4743C24.3182 39.4409 24.3882 39.4243 24.4749 39.4243H25.2799L23.4149 41.4093C23.3249 41.5226 23.2282 41.6109 23.1249 41.6743C23.1849 41.7143 23.2382 41.7609 23.2849 41.8143C23.3349 41.8643 23.3815 41.9226 23.4249 41.9893L25.4049 44.4893H24.6099C24.5332 44.4893 24.4665 44.4776 24.4099 44.4543C24.3565 44.4276 24.3099 44.3809 24.2699 44.3143L22.6049 42.2393C22.5549 42.1693 22.5049 42.1243 22.4549 42.1043C22.4082 42.0809 22.3349 42.0693 22.2349 42.0693H21.9799V44.4893H21.0849V37.1243H21.9799ZM33.7116 37.6843C33.7116 37.7943 33.6783 37.9009 33.6116 38.0043L29.5566 43.6993H33.6516V44.4893H28.2816V44.1093C28.2816 44.0559 28.2899 44.0059 28.3066 43.9593C28.3266 43.9126 28.3499 43.8676 28.3766 43.8243L32.4416 38.1143H28.4716V37.3243H33.7116V37.6843ZM37.8831 41.4043C37.8831 41.1976 37.8531 41.0093 37.7931 40.8393C37.7364 40.6659 37.6514 40.5176 37.5381 40.3943C37.4281 40.2676 37.2931 40.1709 37.1331 40.1043C36.9731 40.0343 36.7914 39.9993 36.5881 39.9993C36.1614 39.9993 35.8231 40.1243 35.5731 40.3743C35.3264 40.6209 35.1731 40.9643 35.1131 41.4043H37.8831ZM38.6031 43.7793C38.4931 43.9126 38.3614 44.0293 38.2081 44.1293C38.0548 44.2259 37.8898 44.3059 37.7131 44.3693C37.5398 44.4326 37.3598 44.4793 37.1731 44.5093C36.9864 44.5426 36.8014 44.5593 36.6181 44.5593C36.2681 44.5593 35.9448 44.5009 35.6481 44.3843C35.3548 44.2643 35.0998 44.0909 34.8831 43.8643C34.6698 43.6343 34.5031 43.3509 34.3831 43.0143C34.2631 42.6776 34.2031 42.2909 34.2031 41.8543C34.2031 41.5009 34.2564 41.1709 34.3631 40.8643C34.4731 40.5576 34.6298 40.2926 34.8331 40.0693C35.0364 39.8426 35.2848 39.6659 35.5781 39.5393C35.8714 39.4093 36.2014 39.3443 36.5681 39.3443C36.8714 39.3443 37.1514 39.3959 37.4081 39.4993C37.6681 39.5993 37.8914 39.7459 38.0781 39.9393C38.2681 40.1293 38.4164 40.3659 38.5231 40.6493C38.6298 40.9293 38.6831 41.2493 38.6831 41.6093C38.6831 41.7493 38.6681 41.8426 38.6381 41.8893C38.6081 41.9359 38.5514 41.9593 38.4681 41.9593H35.0831C35.0931 42.2793 35.1364 42.5576 35.2131 42.7943C35.2931 43.0309 35.4031 43.2293 35.5431 43.3893C35.6831 43.5459 35.8498 43.6643 36.0431 43.7443C36.2364 43.8209 36.4531 43.8593 36.6931 43.8593C36.9164 43.8593 37.1081 43.8343 37.2681 43.7843C37.4314 43.7309 37.5714 43.6743 37.6881 43.6143C37.8048 43.5543 37.9014 43.4993 37.9781 43.4493C38.0581 43.3959 38.1264 43.3693 38.1831 43.3693C38.2564 43.3693 38.3131 43.3976 38.3531 43.4543L38.6031 43.7793ZM40.6213 40.4393C40.7813 40.0926 40.978 39.8226 41.2113 39.6293C41.4446 39.4326 41.7296 39.3343 42.0663 39.3343C42.173 39.3343 42.2746 39.3459 42.3713 39.3693C42.4713 39.3926 42.5596 39.4293 42.6363 39.4793L42.5713 40.1443C42.5513 40.2276 42.5013 40.2693 42.4213 40.2693C42.3746 40.2693 42.3063 40.2593 42.2163 40.2393C42.1263 40.2193 42.0246 40.2093 41.9113 40.2093C41.7513 40.2093 41.608 40.2326 41.4813 40.2793C41.358 40.3259 41.2463 40.3959 41.1463 40.4893C41.0496 40.5793 40.9613 40.6926 40.8813 40.8293C40.8046 40.9626 40.7346 41.1159 40.6713 41.2893V44.4893H39.7763V39.4243H40.2863C40.383 39.4243 40.4496 39.4426 40.4863 39.4793C40.523 39.5159 40.548 39.5793 40.5613 39.6693L40.6213 40.4393ZM45.3488 39.3443C45.7188 39.3443 46.0521 39.4059 46.3488 39.5293C46.6455 39.6526 46.8988 39.8276 47.1088 40.0543C47.3188 40.2809 47.4788 40.5559 47.5888 40.8793C47.7021 41.1993 47.7588 41.5576 47.7588 41.9543C47.7588 42.3543 47.7021 42.7143 47.5888 43.0343C47.4788 43.3543 47.3188 43.6276 47.1088 43.8543C46.8988 44.0809 46.6455 44.2559 46.3488 44.3793C46.0521 44.4993 45.7188 44.5593 45.3488 44.5593C44.9755 44.5593 44.6388 44.4993 44.3388 44.3793C44.0421 44.2559 43.7888 44.0809 43.5788 43.8543C43.3688 43.6276 43.2071 43.3543 43.0938 43.0343C42.9838 42.7143 42.9288 42.3543 42.9288 41.9543C42.9288 41.5576 42.9838 41.1993 43.0938 40.8793C43.2071 40.5559 43.3688 40.2809 43.5788 40.0543C43.7888 39.8276 44.0421 39.6526 44.3388 39.5293C44.6388 39.4059 44.9755 39.3443 45.3488 39.3443ZM45.3488 43.8643C45.8488 43.8643 46.2221 43.6976 46.4688 43.3643C46.7155 43.0276 46.8388 42.5593 46.8388 41.9593C46.8388 41.3559 46.7155 40.8859 46.4688 40.5493C46.2221 40.2126 45.8488 40.0443 45.3488 40.0443C45.0955 40.0443 44.8738 40.0876 44.6838 40.1743C44.4971 40.2609 44.3405 40.3859 44.2138 40.5493C44.0905 40.7126 43.9971 40.9143 43.9338 41.1543C43.8738 41.3909 43.8438 41.6593 43.8438 41.9593C43.8438 42.5593 43.9671 43.0276 44.2138 43.3643C44.4638 43.6976 44.8421 43.8643 45.3488 43.8643ZM56.6862 43.0093C56.7395 43.0093 56.7862 43.0309 56.8262 43.0743L57.2112 43.4893C56.9179 43.8293 56.5612 44.0943 56.1412 44.2843C55.7245 44.4743 55.2195 44.5693 54.6262 44.5693C54.1129 44.5693 53.6462 44.4809 53.2262 44.3043C52.8062 44.1243 52.4479 43.8743 52.1512 43.5543C51.8545 43.2309 51.6245 42.8443 51.4612 42.3943C51.2979 41.9443 51.2162 41.4493 51.2162 40.9093C51.2162 40.3693 51.3012 39.8743 51.4712 39.4243C51.6412 38.9743 51.8795 38.5876 52.1862 38.2643C52.4962 37.9409 52.8662 37.6909 53.2962 37.5143C53.7262 37.3343 54.2012 37.2443 54.7212 37.2443C55.2312 37.2443 55.6812 37.3259 56.0712 37.4893C56.4612 37.6526 56.8045 37.8743 57.1012 38.1543L56.7812 38.5993C56.7612 38.6326 56.7345 38.6609 56.7012 38.6843C56.6712 38.7043 56.6295 38.7143 56.5762 38.7143C56.5162 38.7143 56.4429 38.6826 56.3562 38.6193C56.2695 38.5526 56.1562 38.4793 56.0162 38.3993C55.8762 38.3193 55.7012 38.2476 55.4912 38.1843C55.2812 38.1176 55.0229 38.0843 54.7162 38.0843C54.3462 38.0843 54.0079 38.1493 53.7012 38.2793C53.3945 38.4059 53.1295 38.5909 52.9062 38.8343C52.6862 39.0776 52.5145 39.3743 52.3912 39.7243C52.2679 40.0743 52.2062 40.4693 52.2062 40.9093C52.2062 41.3559 52.2695 41.7543 52.3962 42.1043C52.5262 42.4543 52.7012 42.7509 52.9212 42.9943C53.1445 43.2343 53.4062 43.4176 53.7062 43.5443C54.0095 43.6709 54.3362 43.7343 54.6862 43.7343C54.8995 43.7343 55.0912 43.7226 55.2612 43.6993C55.4345 43.6726 55.5929 43.6326 55.7362 43.5793C55.8829 43.5259 56.0179 43.4593 56.1412 43.3793C56.2679 43.2959 56.3929 43.1976 56.5162 43.0843C56.5729 43.0343 56.6295 43.0093 56.6862 43.0093ZM60.8709 42.2093C60.4609 42.2226 60.1109 42.2559 59.8209 42.3093C59.5342 42.3593 59.2992 42.4259 59.1159 42.5093C58.9359 42.5926 58.8042 42.6909 58.7209 42.8043C58.6409 42.9176 58.6009 43.0443 58.6009 43.1843C58.6009 43.3176 58.6226 43.4326 58.6659 43.5293C58.7092 43.6259 58.7676 43.7059 58.8409 43.7693C58.9176 43.8293 59.0059 43.8743 59.1059 43.9043C59.2092 43.9309 59.3192 43.9443 59.4359 43.9443C59.5926 43.9443 59.7359 43.9293 59.8659 43.8993C59.9959 43.8659 60.1176 43.8193 60.2309 43.7593C60.3476 43.6993 60.4576 43.6276 60.5609 43.5443C60.6676 43.4609 60.7709 43.3659 60.8709 43.2593V42.2093ZM57.9959 40.1393C58.2759 39.8693 58.5776 39.6676 58.9009 39.5343C59.2242 39.4009 59.5826 39.3343 59.9759 39.3343C60.2592 39.3343 60.5109 39.3809 60.7309 39.4743C60.9509 39.5676 61.1359 39.6976 61.2859 39.8643C61.4359 40.0309 61.5492 40.2326 61.6259 40.4693C61.7026 40.7059 61.7409 40.9659 61.7409 41.2493V44.4893H61.3459C61.2592 44.4893 61.1926 44.4759 61.1459 44.4493C61.0992 44.4193 61.0626 44.3626 61.0359 44.2793L60.9359 43.7993C60.8026 43.9226 60.6726 44.0326 60.5459 44.1293C60.4192 44.2226 60.2859 44.3026 60.1459 44.3693C60.0059 44.4326 59.8559 44.4809 59.6959 44.5143C59.5392 44.5509 59.3642 44.5693 59.1709 44.5693C58.9742 44.5693 58.7892 44.5426 58.6159 44.4893C58.4426 44.4326 58.2909 44.3493 58.1609 44.2393C58.0342 44.1293 57.9326 43.9909 57.8559 43.8243C57.7826 43.6543 57.7459 43.4543 57.7459 43.2243C57.7459 43.0243 57.8009 42.8326 57.9109 42.6493C58.0209 42.4626 58.1992 42.2976 58.4459 42.1543C58.6926 42.0109 59.0142 41.8943 59.4109 41.8043C59.8076 41.7109 60.2942 41.6576 60.8709 41.6443V41.2493C60.8709 40.8559 60.7859 40.5593 60.6159 40.3593C60.4459 40.1559 60.1976 40.0543 59.8709 40.0543C59.6509 40.0543 59.4659 40.0826 59.3159 40.1393C59.1692 40.1926 59.0409 40.2543 58.9309 40.3243C58.8242 40.3909 58.7309 40.4526 58.6509 40.5093C58.5742 40.5626 58.4976 40.5893 58.4209 40.5893C58.3609 40.5893 58.3092 40.5743 58.2659 40.5443C58.2226 40.5109 58.1859 40.4709 58.1559 40.4243L57.9959 40.1393ZM63.9416 40.4393C64.1016 40.0926 64.2983 39.8226 64.5316 39.6293C64.7649 39.4326 65.0499 39.3343 65.3866 39.3343C65.4933 39.3343 65.5949 39.3459 65.6916 39.3693C65.7916 39.3926 65.8799 39.4293 65.9566 39.4793L65.8916 40.1443C65.8716 40.2276 65.8216 40.2693 65.7416 40.2693C65.6949 40.2693 65.6266 40.2593 65.5366 40.2393C65.4466 40.2193 65.3449 40.2093 65.2316 40.2093C65.0716 40.2093 64.9283 40.2326 64.8016 40.2793C64.6783 40.3259 64.5666 40.3959 64.4666 40.4893C64.3699 40.5793 64.2816 40.6926 64.2016 40.8293C64.1249 40.9626 64.0549 41.1159 63.9916 41.2893V44.4893H63.0966V39.4243H63.6066C63.7033 39.4243 63.7699 39.4426 63.8066 39.4793C63.8433 39.5159 63.8683 39.5793 63.8816 39.6693L63.9416 40.4393ZM67.6342 43.2693C67.7975 43.4893 67.9758 43.6443 68.1692 43.7343C68.3658 43.8243 68.5808 43.8693 68.8142 43.8693C69.2908 43.8693 69.6558 43.7009 69.9092 43.3643C70.1625 43.0276 70.2892 42.5259 70.2892 41.8593C70.2892 41.2393 70.1758 40.7843 69.9492 40.4943C69.7258 40.2009 69.4058 40.0543 68.9892 40.0543C68.6992 40.0543 68.4458 40.1209 68.2292 40.2543C68.0158 40.3876 67.8175 40.5759 67.6342 40.8193V43.2693ZM67.6342 40.1543C67.8475 39.9076 68.0875 39.7109 68.3542 39.5643C68.6242 39.4176 68.9342 39.3443 69.2842 39.3443C69.5808 39.3443 69.8475 39.4009 70.0842 39.5143C70.3242 39.6276 70.5275 39.7926 70.6942 40.0093C70.8608 40.2226 70.9875 40.4826 71.0742 40.7893C71.1642 41.0959 71.2092 41.4409 71.2092 41.8243C71.2092 42.2343 71.1592 42.6076 71.0592 42.9443C70.9592 43.2809 70.8142 43.5693 70.6242 43.8093C70.4375 44.0459 70.2092 44.2309 69.9392 44.3643C69.6692 44.4943 69.3658 44.5593 69.0292 44.5593C68.6958 44.5593 68.4142 44.4976 68.1842 44.3743C67.9575 44.2476 67.7592 44.0693 67.5892 43.8393L67.5442 44.2993C67.5175 44.4259 67.4408 44.4893 67.3142 44.4893H66.7392V37.1243H67.6342V40.1543ZM74.4699 39.3443C74.8399 39.3443 75.1732 39.4059 75.4699 39.5293C75.7665 39.6526 76.0199 39.8276 76.2299 40.0543C76.4399 40.2809 76.5999 40.5559 76.7099 40.8793C76.8232 41.1993 76.8799 41.5576 76.8799 41.9543C76.8799 42.3543 76.8232 42.7143 76.7099 43.0343C76.5999 43.3543 76.4399 43.6276 76.2299 43.8543C76.0199 44.0809 75.7665 44.2559 75.4699 44.3793C75.1732 44.4993 74.8399 44.5593 74.4699 44.5593C74.0965 44.5593 73.7599 44.4993 73.4599 44.3793C73.1632 44.2559 72.9099 44.0809 72.6999 43.8543C72.4899 43.6276 72.3282 43.3543 72.2149 43.0343C72.1049 42.7143 72.0499 42.3543 72.0499 41.9543C72.0499 41.5576 72.1049 41.1993 72.2149 40.8793C72.3282 40.5559 72.4899 40.2809 72.6999 40.0543C72.9099 39.8276 73.1632 39.6526 73.4599 39.5293C73.7599 39.4059 74.0965 39.3443 74.4699 39.3443ZM74.4699 43.8643C74.9699 43.8643 75.3432 43.6976 75.5899 43.3643C75.8365 43.0276 75.9599 42.5593 75.9599 41.9593C75.9599 41.3559 75.8365 40.8859 75.5899 40.5493C75.3432 40.2126 74.9699 40.0443 74.4699 40.0443C74.2165 40.0443 73.9949 40.0876 73.8049 40.1743C73.6182 40.2609 73.4615 40.3859 73.3349 40.5493C73.2115 40.7126 73.1182 40.9143 73.0549 41.1543C72.9949 41.3909 72.9649 41.6593 72.9649 41.9593C72.9649 42.5593 73.0882 43.0276 73.3349 43.3643C73.5849 43.6976 73.9632 43.8643 74.4699 43.8643ZM78.8487 40.1593C78.9587 40.0359 79.0754 39.9243 79.1987 39.8243C79.322 39.7243 79.452 39.6393 79.5887 39.5693C79.7287 39.4959 79.8754 39.4409 80.0287 39.4043C80.1854 39.3643 80.3537 39.3443 80.5337 39.3443C80.8104 39.3443 81.0537 39.3909 81.2637 39.4843C81.477 39.5743 81.6537 39.7043 81.7937 39.8743C81.937 40.0409 82.0454 40.2426 82.1187 40.4793C82.192 40.7159 82.2287 40.9776 82.2287 41.2643V44.4893H81.3337V41.2643C81.3337 40.8809 81.2454 40.5843 81.0687 40.3743C80.8954 40.1609 80.6304 40.0543 80.2737 40.0543C80.0104 40.0543 79.7637 40.1176 79.5337 40.2443C79.307 40.3709 79.097 40.5426 78.9037 40.7593V44.4893H78.0087V39.4243H78.5437C78.6704 39.4243 78.7487 39.4859 78.7787 39.6093L78.8487 40.1593ZM92.9735 40.9093C92.9735 41.4459 92.8885 41.9393 92.7185 42.3893C92.5485 42.8359 92.3085 43.2209 91.9985 43.5443C91.6885 43.8676 91.3151 44.1193 90.8785 44.2993C90.4451 44.4759 89.9651 44.5643 89.4385 44.5643C88.9118 44.5643 88.4318 44.4759 87.9985 44.2993C87.5651 44.1193 87.1935 43.8676 86.8835 43.5443C86.5735 43.2209 86.3335 42.8359 86.1635 42.3893C85.9935 41.9393 85.9085 41.4459 85.9085 40.9093C85.9085 40.3726 85.9935 39.8809 86.1635 39.4343C86.3335 38.9843 86.5735 38.5976 86.8835 38.2743C87.1935 37.9476 87.5651 37.6943 87.9985 37.5143C88.4318 37.3343 88.9118 37.2443 89.4385 37.2443C89.9651 37.2443 90.4451 37.3343 90.8785 37.5143C91.3151 37.6943 91.6885 37.9476 91.9985 38.2743C92.3085 38.5976 92.5485 38.9843 92.7185 39.4343C92.8885 39.8809 92.9735 40.3726 92.9735 40.9093ZM91.9785 40.9093C91.9785 40.4693 91.9185 40.0743 91.7985 39.7243C91.6785 39.3743 91.5085 39.0793 91.2885 38.8393C91.0685 38.5959 90.8018 38.4093 90.4885 38.2793C90.1751 38.1493 89.8251 38.0843 89.4385 38.0843C89.0551 38.0843 88.7068 38.1493 88.3935 38.2793C88.0801 38.4093 87.8118 38.5959 87.5885 38.8393C87.3685 39.0793 87.1985 39.3743 87.0785 39.7243C86.9585 40.0743 86.8985 40.4693 86.8985 40.9093C86.8985 41.3493 86.9585 41.7443 87.0785 42.0943C87.1985 42.4409 87.3685 42.7359 87.5885 42.9793C87.8118 43.2193 88.0801 43.4043 88.3935 43.5343C88.7068 43.6609 89.0551 43.7243 89.4385 43.7243C89.8251 43.7243 90.1751 43.6609 90.4885 43.5343C90.8018 43.4043 91.0685 43.2193 91.2885 42.9793C91.5085 42.7359 91.6785 42.4409 91.7985 42.0943C91.9185 41.7443 91.9785 41.3493 91.9785 40.9093ZM94.8936 40.1593C95.0036 40.0359 95.1203 39.9243 95.2436 39.8243C95.367 39.7243 95.497 39.6393 95.6336 39.5693C95.7736 39.4959 95.9203 39.4409 96.0736 39.4043C96.2303 39.3643 96.3986 39.3443 96.5786 39.3443C96.8553 39.3443 97.0986 39.3909 97.3086 39.4843C97.522 39.5743 97.6986 39.7043 97.8386 39.8743C97.982 40.0409 98.0903 40.2426 98.1636 40.4793C98.237 40.7159 98.2736 40.9776 98.2736 41.2643V44.4893H97.3786V41.2643C97.3786 40.8809 97.2903 40.5843 97.1136 40.3743C96.9403 40.1609 96.6753 40.0543 96.3186 40.0543C96.0553 40.0543 95.8086 40.1176 95.5786 40.2443C95.352 40.3709 95.142 40.5426 94.9486 40.7593V44.4893H94.0536V39.4243H94.5886C94.7153 39.4243 94.7936 39.4859 94.8236 39.6093L94.8936 40.1593ZM103.02 41.4043C103.02 41.1976 102.99 41.0093 102.93 40.8393C102.873 40.6659 102.788 40.5176 102.675 40.3943C102.565 40.2676 102.43 40.1709 102.27 40.1043C102.11 40.0343 101.928 39.9993 101.725 39.9993C101.298 39.9993 100.96 40.1243 100.71 40.3743C100.463 40.6209 100.31 40.9643 100.25 41.4043H103.02ZM103.74 43.7793C103.63 43.9126 103.498 44.0293 103.345 44.1293C103.191 44.2259 103.026 44.3059 102.85 44.3693C102.676 44.4326 102.496 44.4793 102.31 44.5093C102.123 44.5426 101.938 44.5593 101.755 44.5593C101.405 44.5593 101.081 44.5009 100.785 44.3843C100.491 44.2643 100.236 44.0909 100.02 43.8643C99.8065 43.6343 99.6398 43.3509 99.5198 43.0143C99.3998 42.6776 99.3398 42.2909 99.3398 41.8543C99.3398 41.5009 99.3931 41.1709 99.4998 40.8643C99.6098 40.5576 99.7665 40.2926 99.9698 40.0693C100.173 39.8426 100.421 39.6659 100.715 39.5393C101.008 39.4093 101.338 39.3443 101.705 39.3443C102.008 39.3443 102.288 39.3959 102.545 39.4993C102.805 39.5993 103.028 39.7459 103.215 39.9393C103.405 40.1293 103.553 40.3659 103.66 40.6493C103.766 40.9293 103.82 41.2493 103.82 41.6093C103.82 41.7493 103.805 41.8426 103.775 41.8893C103.745 41.9359 103.688 41.9593 103.605 41.9593H100.22C100.23 42.2793 100.273 42.5576 100.35 42.7943C100.43 43.0309 100.54 43.2293 100.68 43.3893C100.82 43.5459 100.986 43.6643 101.18 43.7443C101.373 43.8209 101.59 43.8593 101.83 43.8593C102.053 43.8593 102.245 43.8343 102.405 43.7843C102.568 43.7309 102.708 43.6743 102.825 43.6143C102.941 43.5543 103.038 43.4993 103.115 43.4493C103.195 43.3959 103.263 43.3693 103.32 43.3693C103.393 43.3693 103.45 43.3976 103.49 43.4543L103.74 43.7793ZM123.948 41.8293L122.823 38.9143C122.789 38.8276 122.754 38.7276 122.718 38.6143C122.681 38.4976 122.646 38.3743 122.613 38.2443C122.543 38.5143 122.471 38.7393 122.398 38.9193L121.273 41.8293H123.948ZM125.968 44.4893H125.218C125.131 44.4893 125.061 44.4676 125.008 44.4243C124.954 44.3809 124.914 44.3259 124.888 44.2593L124.218 42.5293H121.003L120.333 44.2593C120.313 44.3193 120.274 44.3726 120.218 44.4193C120.161 44.4659 120.091 44.4893 120.008 44.4893H119.258L122.123 37.3243H123.103L125.968 44.4893ZM127.88 44.4893H126.91V37.3243H127.88V44.4893Z" fill="white"/>
<path d="M28.9923 10.2271C30.5947 15.3714 27.709 18.5378 26.0658 19.478L41.7901 23.6784C41.3028 21.7801 38.452 16.1245 36.1592 12.6915C33.8665 9.25843 27.8501 3.80643 24.4771 1.00928C25.3145 1.93838 27.3899 5.08267 28.9923 10.2271Z" fill="black"/>
<defs>
<radialGradient id="paint0_radial_2676_71697" cx="0" cy="0" r="1" gradientUnits="userSpaceOnUse" gradientTransform="translate(124.374 39.9407) rotate(89.9998) scale(24.2973 22.2358)">
<stop/>
<stop offset="0.545611" stop-color="#5AD8F1" stop-opacity="0.31"/>
<stop offset="0.717347" stop-color="#5AE3FE"/>
<stop offset="0.808332" stop-color="#5AD8F1" stop-opacity="0.17"/>
</radialGradient>
<radialGradient id="paint1_radial_2676_71697" cx="0" cy="0" r="1" gradientUnits="userSpaceOnUse" gradientTransform="translate(124.374 27.5904) rotate(90) scale(39.6731 36.307)">
<stop offset="0.355373" stop-color="#386CD1"/>
<stop offset="0.482278" stop-color="#2F3F94" stop-opacity="0.45"/>
<stop offset="0.717347" stop-color="#003EFF" stop-opacity="0"/>
<stop offset="0.808332" stop-color="#003EFF" stop-opacity="0"/>
</radialGradient>
</defs>
</svg>
