<svg width="67" height="67" viewBox="0 0 67 67" fill="none" xmlns="http://www.w3.org/2000/svg">
<path d="M33.4009 3.66189L37.572 0.597656L40.8514 4.5996L45.6527 2.67293L47.8305 7.36664L52.9649 6.69025L53.9026 11.7785L59.0421 12.3985L58.6885 17.5637L63.5103 19.4391L61.886 24.3531L66.0878 27.3764L63.2951 31.7319L66.6156 35.698L62.8186 39.2234L65.0527 43.8915L60.5025 46.3613L61.5017 51.4393L56.48 52.6998L56.1828 57.865L51.0075 57.8394L49.4343 62.7688L44.428 61.457L41.6764 65.8381L37.1569 63.3222L33.4009 66.8835L29.6501 63.3222L25.1306 65.8381L22.3789 61.457L17.3726 62.7688L15.7995 57.8394L10.6242 57.865L10.3269 52.6998L5.3053 51.4393L6.30451 46.3613L1.75428 43.8915L3.98326 39.2234L0.191406 35.698L3.51185 31.7319L0.719191 27.3764L4.92099 24.3531L3.29152 19.4391L8.11844 17.5637L7.76488 12.3985L12.9044 11.7785L13.8421 6.69025L18.9765 7.36664L21.1542 2.67293L25.9556 4.5996L29.2299 0.597656L33.4009 3.66189Z" fill="#08D004"/>
<path d="M49.976 50.3169C59.131 41.1618 59.1311 26.3186 49.976 17.1636C40.821 8.00855 25.9778 8.00857 16.8227 17.1636C7.66771 26.3186 7.66771 41.1618 16.8227 50.3169C25.9778 59.4719 40.821 59.4719 49.976 50.3169Z" fill="white"/>
<path d="M38.5137 28.1859L44.801 29.1083C45.0341 29.1421 45.253 29.2405 45.4329 29.3923C45.6129 29.5442 45.7468 29.7434 45.8193 29.9674C45.8919 30.1915 45.9002 30.4313 45.8434 30.6599C45.7866 30.8884 45.6669 31.0964 45.4979 31.2604L40.9425 35.6928C40.7954 35.8352 40.6853 36.0114 40.6219 36.2061C40.5585 36.4008 40.5437 36.6081 40.5787 36.8099L41.6497 43.0869C41.6891 43.3187 41.663 43.5568 41.5742 43.7745C41.4854 43.9921 41.3375 44.1806 41.1472 44.3187C40.9569 44.4567 40.7319 44.5388 40.4974 44.5556C40.2629 44.5725 40.0284 44.5235 39.8203 44.4141L34.1838 41.4472C34.0031 41.3512 33.8017 41.301 33.5971 41.301C33.3925 41.301 33.191 41.3512 33.0104 41.4472L27.3738 44.3987C27.1655 44.5071 26.931 44.5552 26.6968 44.5375C26.4626 44.5198 26.2381 44.437 26.0484 44.2985C25.8587 44.16 25.7116 43.9712 25.6234 43.7535C25.5353 43.5358 25.5098 43.2979 25.5496 43.0664L26.6308 36.8047C26.6656 36.6034 26.6512 36.3967 26.5887 36.2021C26.5263 36.0076 26.4176 35.8311 26.2721 35.6877L21.7219 31.245C21.5528 31.0807 21.4332 30.8723 21.3766 30.6434C21.3201 30.4145 21.3289 30.1743 21.402 29.9501C21.4751 29.726 21.6096 29.5268 21.7903 29.3753C21.9709 29.2237 22.1905 29.1259 22.4239 29.0929L28.7164 28.1859C28.9185 28.1579 29.1107 28.0807 29.276 27.961C29.4413 27.8412 29.5747 27.6827 29.6643 27.4993L32.4877 21.8013C32.5919 21.5906 32.7529 21.4133 32.9526 21.2893C33.1522 21.1653 33.3826 21.0996 33.6176 21.0996C33.8526 21.0996 34.0829 21.1653 34.2826 21.2893C34.4822 21.4133 34.6433 21.5906 34.7475 21.8013L37.5504 27.5096C37.6434 27.6924 37.7799 27.8497 37.9479 27.9676C38.1158 28.0856 38.3101 28.1605 38.5137 28.1859Z" fill="#08D004"/>
</svg>
