<svg width="27" height="27" viewBox="0 0 27 27" fill="none" xmlns="http://www.w3.org/2000/svg">
<path d="M7.51172 6.75989C7.51172 5.93248 8.18246 5.26172 9.00989 5.26172H20.2837C21.1111 5.26172 21.7818 5.93248 21.7818 6.75989V22.0293C21.7818 22.8566 21.1111 23.5276 20.2837 23.5276H9.00989C8.18246 23.5276 7.51172 22.8566 7.51172 22.0293V6.75989Z" fill="#464646"/>
<path d="M6.51562 5.75989C6.51562 4.93248 7.18638 4.26172 8.01379 4.26172H19.2876C20.115 4.26172 20.7857 4.93248 20.7857 5.75989V21.0292C20.7857 21.8568 20.115 22.5275 19.2876 22.5275H8.01379C7.18638 22.5275 6.51562 21.8568 6.51562 21.0292V5.75989Z" fill="#ECECEC"/>
<path fill-rule="evenodd" clip-rule="evenodd" d="M8.01334 3.88672H19.2871C20.3214 3.88672 21.1598 4.72518 21.1598 5.75943V21.0288C21.1598 22.0631 20.3214 22.9016 19.2871 22.9016H8.01334C6.97906 22.9016 6.14062 22.0631 6.14062 21.0288V5.75943C6.14062 4.72516 6.97908 3.88672 8.01334 3.88672ZM8.01334 4.26126C7.18593 4.26126 6.51517 4.93202 6.51517 5.75943V21.0288C6.51517 21.8563 7.18593 22.527 8.01334 22.527H19.2871C20.1145 22.527 20.7853 21.8563 20.7853 21.0288V5.75943C20.7853 4.93202 20.1145 4.26126 19.2871 4.26126H8.01334Z" fill="#464646"/>
<path d="M8.24219 6.68854C8.24219 6.27483 8.57757 5.93945 8.99127 5.93945H18.4989C18.9126 5.93945 19.248 6.27483 19.248 6.68854V8.4438C19.248 8.85751 18.9126 9.19289 18.4989 9.19289H8.99127C8.57757 9.19289 8.24219 8.85751 8.24219 8.4438V6.68854Z" fill="#464646"/>
<path fill-rule="evenodd" clip-rule="evenodd" d="M8.90533 10.5156H10.5108C10.9245 10.5156 11.2599 10.851 11.2599 11.2647V11.6005C11.2599 12.0142 10.9245 12.3496 10.5108 12.3496H8.90533C8.49163 12.3496 8.15625 12.0142 8.15625 11.6005V11.2647C8.15625 10.851 8.49163 10.5156 8.90533 10.5156ZM8.90533 10.8902C8.69847 10.8902 8.53079 11.0578 8.53079 11.2647V11.6005C8.53079 11.8074 8.69847 11.9751 8.90533 11.9751H10.5108C10.7177 11.9751 10.8854 11.8074 10.8854 11.6005V11.2647C10.8854 11.0578 10.7177 10.8902 10.5108 10.8902H8.90533ZM8.90533 13.1555H10.5108C10.9245 13.1555 11.2599 13.4908 11.2599 13.9045V14.2403C11.2599 14.6541 10.9245 14.9894 10.5108 14.9894H8.90533C8.49163 14.9894 8.15625 14.6541 8.15625 14.2403V13.9045C8.15625 13.4908 8.49163 13.1555 8.90533 13.1555ZM8.90533 13.53C8.69847 13.53 8.53079 13.6977 8.53079 13.9045V14.2403C8.53079 14.4472 8.69847 14.6149 8.90533 14.6149H10.5108C10.7177 14.6149 10.8854 14.4472 10.8854 14.2403V13.9045C10.8854 13.6977 10.7177 13.53 10.5108 13.53H8.90533ZM8.90533 15.9381H10.5108C10.9245 15.9381 11.2599 16.2734 11.2599 16.6872V17.023C11.2599 17.4367 10.9245 17.7721 10.5108 17.7721H8.90533C8.49163 17.7721 8.15625 17.4367 8.15625 17.023V16.6872C8.15625 16.2734 8.49163 15.9381 8.90533 15.9381ZM8.90533 16.3126C8.69847 16.3126 8.53079 16.4803 8.53079 16.6872V17.023C8.53079 17.2298 8.69847 17.3975 8.90533 17.3975H10.5108C10.7177 17.3975 10.8854 17.2298 10.8854 17.023V16.6872C10.8854 16.4803 10.7177 16.3126 10.5108 16.3126H8.90533ZM8.90533 18.7208H10.5108C10.9245 18.7208 11.2599 19.0562 11.2599 19.4699V19.8057C11.2599 20.2194 10.9245 20.5548 10.5108 20.5548H8.90533C8.49163 20.5548 8.15625 20.2194 8.15625 19.8057V19.4699C8.15625 19.0562 8.49163 18.7208 8.90533 18.7208ZM8.90533 19.0953C8.69847 19.0953 8.53079 19.263 8.53079 19.4699V19.8057C8.53079 20.0126 8.69847 20.1802 8.90533 20.1802H10.5108C10.7177 20.1802 10.8854 20.0126 10.8854 19.8057V19.4699C10.8854 19.263 10.7177 19.0953 10.5108 19.0953H8.90533ZM13.0437 10.5156H14.6492C15.0629 10.5156 15.3982 10.851 15.3982 11.2647V11.6005C15.3982 12.0142 15.0629 12.3496 14.6492 12.3496H13.0437C12.63 12.3496 12.2946 12.0142 12.2946 11.6005V11.2647C12.2946 10.851 12.63 10.5156 13.0437 10.5156ZM13.0437 10.8902C12.8368 10.8902 12.6691 11.0578 12.6691 11.2647V11.6005C12.6691 11.8074 12.8368 11.9751 13.0437 11.9751H14.6492C14.856 11.9751 15.0237 11.8074 15.0237 11.6005V11.2647C15.0237 11.0578 14.856 10.8902 14.6492 10.8902H13.0437ZM13.0437 13.1555H14.6492C15.0629 13.1555 15.3982 13.4908 15.3982 13.9045V14.2403C15.3982 14.6541 15.0629 14.9894 14.6492 14.9894H13.0437C12.63 14.9894 12.2946 14.6541 12.2946 14.2403V13.9045C12.2946 13.4908 12.63 13.1555 13.0437 13.1555ZM13.0437 13.53C12.8368 13.53 12.6691 13.6977 12.6691 13.9045V14.2403C12.6691 14.4472 12.8368 14.6149 13.0437 14.6149H14.6492C14.856 14.6149 15.0237 14.4472 15.0237 14.2403V13.9045C15.0237 13.6977 14.856 13.53 14.6492 13.53H13.0437ZM13.0437 15.9381H14.6492C15.0629 15.9381 15.3982 16.2734 15.3982 16.6872V17.023C15.3982 17.4367 15.0629 17.7721 14.6492 17.7721H13.0437C12.63 17.7721 12.2946 17.4367 12.2946 17.023V16.6872C12.2946 16.2734 12.63 15.9381 13.0437 15.9381ZM13.0437 16.3126C12.8368 16.3126 12.6691 16.4803 12.6691 16.6872V17.023C12.6691 17.2298 12.8368 17.3975 13.0437 17.3975H14.6492C14.856 17.3975 15.0237 17.2298 15.0237 17.023V16.6872C15.0237 16.4803 14.856 16.3126 14.6492 16.3126H13.0437ZM13.0437 18.7208H14.6492C15.0629 18.7208 15.3982 19.0562 15.3982 19.4699V19.8057C15.3982 20.2194 15.0629 20.5548 14.6492 20.5548H13.0437C12.63 20.5548 12.2946 20.2194 12.2946 19.8057V19.4699C12.2946 19.0562 12.63 18.7208 13.0437 18.7208ZM13.0437 19.0953C12.8368 19.0953 12.6691 19.263 12.6691 19.4699V19.8057C12.6691 20.0126 12.8368 20.1802 13.0437 20.1802H14.6492C14.856 20.1802 15.0237 20.0126 15.0237 19.8057V19.4699C15.0237 19.263 14.856 19.0953 14.6492 19.0953H13.0437ZM17.075 10.5156H18.6805C19.0942 10.5156 19.4296 10.851 19.4296 11.2647V11.6005C19.4296 12.0142 19.0942 12.3496 18.6805 12.3496H17.075C16.6613 12.3496 16.326 12.0142 16.326 11.6005V11.2647C16.326 10.851 16.6613 10.5156 17.075 10.5156ZM17.075 10.8902C16.8682 10.8902 16.7005 11.0578 16.7005 11.2647V11.6005C16.7005 11.8074 16.8682 11.9751 17.075 11.9751H18.6805C18.8874 11.9751 19.0551 11.8074 19.0551 11.6005V11.2647C19.0551 11.0578 18.8874 10.8902 18.6805 10.8902H17.075ZM16.8608 13.1555H18.4663C18.8801 13.1555 19.2154 13.4908 19.2154 13.9045V19.8056C19.2154 20.2193 18.8801 20.5547 18.4663 20.5547H16.8608C16.4471 20.5547 16.1118 20.2193 16.1118 19.8056V13.9045C16.1118 13.4908 16.4471 13.1555 16.8608 13.1555ZM16.8608 13.53C16.654 13.53 16.4863 13.6977 16.4863 13.9045V19.8056C16.4863 20.0125 16.654 20.1802 16.8608 20.1802H18.4663C18.6732 20.1802 18.8409 20.0125 18.8409 19.8056V13.9045C18.8409 13.6977 18.6732 13.53 18.4663 13.53H16.8608Z" fill="#464646"/>
<path fill-rule="evenodd" clip-rule="evenodd" d="M17.082 16.4705C17.082 16.3671 17.1659 16.2832 17.2693 16.2832H18.0542C18.1576 16.2832 18.2414 16.3671 18.2414 16.4705C18.2414 16.5739 18.1576 16.6577 18.0542 16.6577H17.2693C17.1659 16.6577 17.082 16.5739 17.082 16.4705ZM17.082 17.1662C17.082 17.0628 17.1659 16.9789 17.2693 16.9789H18.0542C18.1576 16.9789 18.2414 17.0628 18.2414 17.1662C18.2414 17.2696 18.1576 17.3535 18.0542 17.3535H17.2693C17.1659 17.3535 17.082 17.2696 17.082 17.1662Z" fill="#464646"/>
<path fill-rule="evenodd" clip-rule="evenodd" d="M17.082 7.05952C17.082 6.76993 17.3168 6.53516 17.6064 6.53516H17.7706C18.0602 6.53516 18.295 6.76993 18.295 7.05952V7.98181C18.295 8.27141 18.0602 8.50618 17.7706 8.50618H17.6064C17.3168 8.50618 17.082 8.27141 17.082 7.98181V7.05952ZM17.6064 6.9097C17.5236 6.9097 17.4566 6.97677 17.4566 7.05952V7.98181C17.4566 8.06454 17.5237 8.13164 17.6064 8.13164H17.7706C17.8533 8.13164 17.9204 8.06454 17.9204 7.98181V7.05952C17.9204 6.97677 17.8533 6.9097 17.7706 6.9097H17.6064Z" fill="white"/>
</svg>
