<svg width="33" height="33" viewBox="0 0 33 33" fill="none" xmlns="http://www.w3.org/2000/svg">
<circle cx="16.4766" cy="16.8984" r="16" fill="#E0FAFF"/>
<path d="M9.58203 23.1478H10.4987L19.7279 13.9186L18.8112 13.002L9.58203 22.2311V23.1478ZM22.3737 13.0228L19.707 10.3561L20.582 9.48112C20.8181 9.24501 21.1098 9.12695 21.457 9.12695C21.8043 9.12695 22.0959 9.24501 22.332 9.48112L23.2487 10.3978C23.4848 10.6339 23.6029 10.9256 23.6029 11.2728C23.6029 11.62 23.4848 11.9117 23.2487 12.1478L22.3737 13.0228ZM21.4987 13.8978L10.9987 24.3978H8.33203V21.7311L18.832 11.2311L21.4987 13.8978ZM19.2695 13.4603L18.8112 13.002L19.7279 13.9186L19.2695 13.4603Z" fill="#386CD1"/>
</svg>
