<svg width="21" height="17" viewBox="0 0 21 17" fill="none" xmlns="http://www.w3.org/2000/svg">
<path d="M2.08594 16.543C1.68594 16.543 1.33594 16.393 1.03594 16.093C0.735938 15.793 0.585938 15.443 0.585938 15.043V2.04297C0.585938 1.64297 0.735938 1.29297 1.03594 0.992969C1.33594 0.692969 1.68594 0.542969 2.08594 0.542969H19.0859C19.4859 0.542969 19.8359 0.692969 20.1359 0.992969C20.4359 1.29297 20.5859 1.64297 20.5859 2.04297V15.043C20.5859 15.443 20.4359 15.793 20.1359 16.093C19.8359 16.393 19.4859 16.543 19.0859 16.543H2.08594ZM2.08594 15.043H13.6109V10.968H2.08594V15.043ZM15.1109 15.043H19.0859V5.39297H15.1109V15.043ZM2.08594 9.46797H13.6109V5.39297H2.08594V9.46797Z" fill="#386CD1"/>
</svg>
