<svg width="118" height="82" viewBox="0 0 118 82" fill="none" xmlns="http://www.w3.org/2000/svg">
<path fill-rule="evenodd" clip-rule="evenodd" d="M59.6031 65.1211C77.2379 65.1211 91.5333 50.7461 91.5333 33.0136C91.5333 15.2812 77.2379 0.906128 59.6031 0.906128C41.9687 0.906128 27.6733 15.2812 27.6733 33.0136C27.6733 50.7461 41.9687 65.1211 59.6031 65.1211ZM59.6023 59.2342C75.4715 59.2342 88.336 46.2979 88.336 30.3402C88.336 14.3826 75.4715 1.44638 59.6023 1.44638C43.7329 1.44638 30.8682 14.3826 30.8682 30.3402C30.8682 46.2979 43.7329 59.2342 59.6023 59.2342Z" fill="#004856"/>
<path d="M7.80843 73.164C7.80843 73.2587 7.79193 73.3554 7.75929 73.4541C7.73051 73.5489 7.68752 73.6373 7.63032 73.7197L3.23371 79.9931H7.68559V81.4442H0.869629V80.7217C0.869629 80.6353 0.883928 80.5509 0.91262 80.4686C0.94122 80.3821 0.982195 80.304 1.03545 80.2339L5.44434 73.9358H1.18285V72.4847H7.80843V73.164ZM10.9022 73.9358V76.239H13.8742V77.6406H10.9022V79.9931H14.7216V81.4442H9.04776V72.4847H14.7216V73.9358H10.9022ZM18.8875 76.7267C19.1863 76.7267 19.4442 76.6897 19.6612 76.6156C19.8781 76.5374 20.0562 76.4325 20.1954 76.3006C20.3346 76.1649 20.4369 76.0064 20.5024 75.8252C20.5679 75.6441 20.6007 75.4464 20.6007 75.2325C20.6007 74.8085 20.4594 74.4791 20.177 74.2445C19.8986 74.0099 19.4728 73.8925 18.8998 73.8925H17.9419V76.7267H18.8875ZM23.2043 81.4442H21.5402C21.229 81.4442 21.0039 81.3247 20.8648 81.086L19.17 78.3383C19.1004 78.2313 19.0227 78.153 18.9367 78.1037C18.8547 78.0543 18.7319 78.0296 18.5682 78.0296H17.9419V81.4442H16.0998V72.4847H18.8998C19.522 72.4847 20.0542 72.5506 20.4963 72.6823C20.9384 72.8099 21.3008 72.989 21.5832 73.2195C21.8656 73.4501 22.0723 73.7259 22.2034 74.0469C22.3343 74.3639 22.3998 74.7138 22.3998 75.0966C22.3998 75.393 22.3568 75.6749 22.271 75.9425C22.189 76.206 22.0683 76.4467 21.9086 76.665C21.749 76.8832 21.5525 77.0766 21.3192 77.2454C21.0858 77.4142 20.8197 77.5501 20.5209 77.653C20.6396 77.7188 20.75 77.799 20.8525 77.8937C20.9548 77.9842 21.0468 78.0934 21.1288 78.221L23.2043 81.4442ZM32.5401 76.9614C32.5401 77.6159 32.4295 78.2231 32.2085 78.7829C31.9916 79.3427 31.6825 79.8264 31.2813 80.2339C30.8843 80.6414 30.4054 80.9626 29.8445 81.1972C29.2837 81.4277 28.6614 81.5429 27.9778 81.5429C27.2942 81.5429 26.6719 81.4277 26.111 81.1972C25.5503 80.9626 25.0693 80.6414 24.668 80.2339C24.2669 79.8264 23.9557 79.3427 23.7347 78.7829C23.5178 78.2231 23.4093 77.6159 23.4093 76.9614C23.4093 76.3068 23.5178 75.7018 23.7347 75.146C23.9557 74.5862 24.2669 74.1025 24.668 73.695C25.0693 73.2875 25.5503 72.9685 26.111 72.7379C26.6719 72.5032 27.2942 72.386 27.9778 72.386C28.6614 72.386 29.2837 72.5032 29.8445 72.7379C30.4054 72.9685 30.8843 73.2896 31.2813 73.7012C31.6825 74.1087 31.9916 74.5924 32.2085 75.1522C32.4295 75.7079 32.5401 76.311 32.5401 76.9614ZM30.655 76.9614C30.655 76.4921 30.5936 76.0722 30.4708 75.7018C30.348 75.3272 30.1699 75.0102 29.9366 74.7509C29.7074 74.4874 29.4269 74.2878 29.0954 74.1519C28.7679 74.012 28.3953 73.9419 27.9778 73.9419C27.5602 73.9419 27.1857 74.012 26.854 74.1519C26.5225 74.2878 26.24 74.4874 26.0066 74.7509C25.7775 75.0102 25.6014 75.3272 25.4786 75.7018C25.3558 76.0722 25.2944 76.4921 25.2944 76.9614C25.2944 77.4347 25.3558 77.8588 25.4786 78.2333C25.6014 78.6039 25.7775 78.9187 26.0066 79.178C26.24 79.4374 26.5225 79.6371 26.854 79.777C27.1857 79.9129 27.5602 79.9808 27.9778 79.9808C28.3953 79.9808 28.7679 79.9129 29.0954 79.777C29.4269 79.6371 29.7074 79.4374 29.9366 79.178C30.1699 78.9187 30.348 78.6039 30.4708 78.2333C30.5936 77.8588 30.655 77.4347 30.655 76.9614ZM42.8665 79.2398C42.969 79.2398 43.0549 79.2768 43.1245 79.3509L43.8551 80.1351C43.495 80.5962 43.0467 80.9461 42.5104 81.1848C41.9783 81.4235 41.3437 81.5429 40.6069 81.5429C39.9396 81.5429 39.3399 81.4297 38.8077 81.2033C38.2756 80.9728 37.8232 80.6538 37.4507 80.2463C37.0781 79.8388 36.7917 79.355 36.591 78.7952C36.3905 78.2354 36.2901 77.6241 36.2901 76.9614C36.2901 76.5168 36.3373 76.0948 36.4313 75.6956C36.5296 75.2921 36.6708 74.9217 36.855 74.5841C37.0393 74.2467 37.2603 73.9419 37.5182 73.6703C37.7803 73.3986 38.075 73.168 38.4024 72.9787C38.73 72.7852 39.0861 72.6391 39.4708 72.5403C39.8598 72.4374 40.2733 72.386 40.7113 72.386C41.0388 72.386 41.3479 72.4147 41.6385 72.4724C41.9332 72.5301 42.2075 72.6103 42.4613 72.7132C42.7151 72.8161 42.9485 72.9416 43.1613 73.0898C43.3783 73.234 43.5727 73.3925 43.7446 73.5653L43.1245 74.4174C43.0876 74.4708 43.0406 74.5183 42.9832 74.5594C42.926 74.6005 42.8481 74.6212 42.7498 74.6212C42.6517 74.6212 42.5514 74.5862 42.449 74.5162C42.3507 74.4462 42.228 74.368 42.0806 74.2816C41.9374 74.1951 41.7552 74.117 41.5341 74.0469C41.3172 73.977 41.0409 73.9419 40.7051 73.9419C40.3326 73.9419 39.9908 74.0099 39.6796 74.1457C39.3685 74.2816 39.1005 74.4791 38.8753 74.7385C38.6542 74.9938 38.4823 75.3086 38.3595 75.6832C38.2366 76.0578 38.1752 76.4838 38.1752 76.9614C38.1752 77.443 38.2408 77.8731 38.3717 78.2518C38.5068 78.6264 38.6891 78.9434 38.9183 79.2027C39.1516 79.4621 39.4218 79.6596 39.7288 79.7955C40.04 79.9272 40.3715 79.9931 40.7235 79.9931C40.9323 79.9931 41.1206 79.9828 41.2885 79.9623C41.4604 79.9416 41.618 79.9067 41.7613 79.8573C41.9086 79.8079 42.0458 79.744 42.1727 79.6658C42.3037 79.5877 42.4348 79.4888 42.5657 79.3695C42.6108 79.3324 42.6578 79.3015 42.7069 79.2768C42.756 79.2521 42.8093 79.2398 42.8665 79.2398ZM49.5987 78.0419L48.6347 75.3003C48.5775 75.1563 48.516 74.9876 48.4504 74.7941C48.3891 74.6005 48.3297 74.3906 48.2724 74.1643C48.2151 74.3948 48.1538 74.6088 48.0881 74.8065C48.0267 74.9999 47.9674 75.1686 47.9101 75.3127L46.9522 78.0419H49.5987ZM52.6935 81.4442H51.2627C51.1031 81.4442 50.9722 81.4071 50.8698 81.333C50.7715 81.2549 50.6979 81.156 50.6487 81.0366L50.047 79.3262H46.4978L45.896 81.0366C45.8551 81.1395 45.7835 81.2342 45.6811 81.3207C45.5788 81.403 45.4499 81.4442 45.2942 81.4442H43.8512L47.3329 72.4847H49.218L52.6935 81.4442ZM56.306 76.7267C56.6049 76.7267 56.8627 76.6897 57.0796 76.6156C57.2966 76.5374 57.4747 76.4325 57.6139 76.3006C57.7531 76.1649 57.8554 76.0064 57.9209 75.8252C57.9865 75.6441 58.0191 75.4464 58.0191 75.2325C58.0191 74.8085 57.8779 74.4791 57.5954 74.2445C57.3171 74.0099 56.8913 73.8925 56.3182 73.8925H55.3603V76.7267H56.306ZM60.6227 81.4442H58.9586C58.6476 81.4442 58.4225 81.3247 58.2832 81.086L56.5884 78.3383C56.5189 78.2313 56.4411 78.153 56.3551 78.1037C56.2732 78.0543 56.1505 78.0296 55.9866 78.0296H55.3603V81.4442H53.5182V72.4847H56.3182C56.9405 72.4847 57.4726 72.5506 57.9147 72.6823C58.3568 72.8099 58.7192 72.989 59.0016 73.2195C59.284 73.4501 59.4909 73.7259 59.6218 74.0469C59.7528 74.3639 59.8183 74.7138 59.8183 75.0966C59.8183 75.393 59.7753 75.6749 59.6894 75.9425C59.6075 76.206 59.4867 76.4467 59.327 76.665C59.1674 76.8832 58.9709 77.0766 58.7376 77.2454C58.5042 77.4142 58.2382 77.5501 57.9393 77.653C58.0581 77.7188 58.1686 77.799 58.2709 77.8937C58.3733 77.9842 58.4654 78.0934 58.5472 78.221L60.6227 81.4442ZM64.9143 80.024C65.2085 80.024 65.4505 79.989 65.6385 79.919C65.831 79.8449 65.984 79.7482 66.0986 79.6288C66.2132 79.5094 66.2939 79.3735 66.3388 79.2213C66.3837 79.0648 66.4057 78.9043 66.4057 78.7396C66.4057 78.5585 66.3791 78.396 66.326 78.2518C66.2728 78.1078 66.1866 77.9864 66.0684 77.8876C65.9492 77.7847 65.7943 77.7064 65.6018 77.653C65.413 77.5994 65.1801 77.5727 64.9014 77.5727H63.3358V80.024H64.9143ZM63.3358 73.8925V76.313H64.5458C64.8034 76.313 65.0325 76.2924 65.2333 76.2512C65.434 76.206 65.6018 76.1361 65.7365 76.0413C65.8722 75.9466 65.9739 75.8232 66.0436 75.6709C66.1179 75.5144 66.1545 75.3272 66.1545 75.109C66.1545 74.8867 66.1234 74.6974 66.062 74.5409C66.0051 74.3845 65.9144 74.2589 65.7915 74.1643C65.6696 74.0695 65.5138 74.0016 65.3249 73.9605C65.137 73.9152 64.9143 73.8925 64.6558 73.8925H63.3358ZM64.6558 72.4847C65.2534 72.4847 65.7631 72.5424 66.1848 72.6576C66.611 72.7688 66.9566 72.9294 67.2224 73.1393C67.4929 73.3451 67.689 73.5962 67.8119 73.8925C67.9347 74.189 67.9961 74.5202 67.9961 74.8866C67.9961 75.0926 67.9659 75.2901 67.9045 75.4794C67.8467 75.6688 67.755 75.8479 67.6276 76.0166C67.5048 76.1813 67.3453 76.3315 67.1491 76.4674C66.953 76.6033 66.7192 76.7185 66.4488 76.8131C67.0547 76.9573 67.503 77.1919 67.7935 77.5171C68.0841 77.8422 68.2299 78.2642 68.2299 78.7829C68.2299 79.1616 68.1556 79.5135 68.009 79.8387C67.865 80.1639 67.6542 80.4459 67.3764 80.6847C67.0978 80.9234 66.754 81.1107 66.3443 81.2466C65.9391 81.3783 65.4725 81.4442 64.9445 81.4442H61.4936V72.4847H64.6558ZM78.2463 76.9614C78.2463 77.6159 78.1354 78.2231 77.9144 78.7829C77.6972 79.3427 77.3883 79.8264 76.9868 80.2339C76.5899 80.6414 76.1114 80.9626 75.5504 81.1972C74.9894 81.4277 74.367 81.5429 73.6831 81.5429C73.0002 81.5429 72.3778 81.4277 71.8168 81.1972C71.2558 80.9626 70.7745 80.6414 70.3739 80.2339C69.9724 79.8264 69.6617 79.3427 69.4408 78.7829C69.2235 78.2231 69.1154 77.6159 69.1154 76.9614C69.1154 76.3068 69.2235 75.7018 69.4408 75.146C69.6617 74.5862 69.9724 74.1025 70.3739 73.695C70.7745 73.2875 71.2558 72.9685 71.8168 72.7379C72.3778 72.5032 73.0002 72.386 73.6831 72.386C74.367 72.386 74.9894 72.5032 75.5504 72.7379C76.1114 72.9685 76.5899 73.2896 76.9868 73.7012C77.3883 74.1087 77.6972 74.5924 77.9144 75.1522C78.1354 75.7079 78.2463 76.311 78.2463 76.9614ZM76.3607 76.9614C76.3607 76.4921 76.2993 76.0722 76.1764 75.7018C76.0536 75.3272 75.8758 75.0102 75.642 74.7509C75.4129 74.4874 75.1324 74.2878 74.8014 74.1519C74.4733 74.012 74.1011 73.9419 73.6831 73.9419C73.266 73.9419 72.8911 74.012 72.5602 74.1519C72.2284 74.2878 71.946 74.4874 71.7123 74.7509C71.4831 75.0102 71.3071 75.3272 71.1843 75.7018C71.0615 76.0722 71 76.4921 71 76.9614C71 77.4347 71.0615 77.8588 71.1843 78.2333C71.3071 78.6039 71.4831 78.9187 71.7123 79.178C71.946 79.4374 72.2284 79.6371 72.5602 79.777C72.8911 79.9129 73.266 79.9808 73.6831 79.9808C74.1011 79.9808 74.4733 79.9129 74.8014 79.777C75.1324 79.6371 75.4129 79.4374 75.642 79.178C75.8758 78.9187 76.0536 78.6039 76.1764 78.2333C76.2993 77.8588 76.3607 77.4347 76.3607 76.9614ZM87.2241 72.4847V81.4442H86.2717C86.1287 81.4442 86.0077 81.4215 85.9096 81.3763C85.8115 81.3268 85.7153 81.2444 85.6209 81.1292L81.1814 75.4486C81.1943 75.5927 81.2025 75.7347 81.2062 75.8746C81.2144 76.0145 81.2181 76.1442 81.2181 76.2636V81.4442H79.591V72.4847H80.5618C80.6388 72.4847 80.7048 72.4889 80.7579 72.4971C80.8157 72.5012 80.8661 72.5156 80.911 72.5403C80.9569 72.5609 80.999 72.5897 81.0403 72.6268C81.0815 72.6638 81.1265 72.7132 81.175 72.775L85.6456 78.4803C85.6291 78.3238 85.6172 78.1737 85.609 78.0296C85.6007 77.8814 85.597 77.7415 85.597 77.6097V72.4847H87.2241ZM100.613 76.9614C100.613 77.6159 100.502 78.2231 100.281 78.7829C100.065 79.3427 99.7559 79.8264 99.3544 80.2339C98.9574 80.6414 98.478 80.9626 97.917 81.1972C97.356 81.4277 96.7345 81.5429 96.0507 81.5429C95.3669 81.5429 94.7444 81.4277 94.1844 81.1972C93.6234 80.9626 93.1421 80.6414 92.7406 80.2339C92.34 79.8264 92.0284 79.3427 91.8074 78.7829C91.5902 78.2231 91.482 77.6159 91.482 76.9614C91.482 76.3068 91.5902 75.7018 91.8074 75.146C92.0284 74.5862 92.34 74.1025 92.7406 73.695C93.1421 73.2875 93.6234 72.9685 94.1844 72.7379C94.7444 72.5032 95.3669 72.386 96.0507 72.386C96.7345 72.386 97.356 72.5032 97.917 72.7379C98.478 72.9685 98.9574 73.2896 99.3544 73.7012C99.7559 74.1087 100.065 74.5924 100.281 75.1522C100.502 75.7079 100.613 76.311 100.613 76.9614ZM98.7283 76.9614C98.7283 76.4921 98.6669 76.0722 98.544 75.7018C98.4212 75.3272 98.2424 75.0102 98.0096 74.7509C97.7804 74.4874 97.5 74.2878 97.1681 74.1519C96.8409 74.012 96.4678 73.9419 96.0507 73.9419C95.6327 73.9419 95.2587 74.012 94.9269 74.1519C94.595 74.2878 94.3127 74.4874 94.0799 74.7509C93.8507 75.0102 93.6747 75.3272 93.5519 75.7018C93.429 76.0722 93.3676 76.4921 93.3676 76.9614C93.3676 77.4347 93.429 77.8588 93.5519 78.2333C93.6747 78.6039 93.8507 78.9187 94.0799 79.178C94.3127 79.4374 94.595 79.6371 94.9269 79.777C95.2587 79.9129 95.6327 79.9808 96.0507 79.9808C96.4678 79.9808 96.8409 79.9129 97.1681 79.777C97.5 79.6371 97.7804 79.4374 98.0096 79.178C98.2424 78.9187 98.4212 78.6039 98.544 78.2333C98.6669 77.8588 98.7283 77.4347 98.7283 76.9614ZM109.591 72.4847V81.4442H108.639C108.495 81.4442 108.375 81.4215 108.277 81.3763C108.179 81.3268 108.083 81.2444 107.988 81.1292L103.549 75.4486C103.561 75.5927 103.569 75.7347 103.573 75.8746C103.581 76.0145 103.586 76.1442 103.586 76.2636V81.4442H101.959V72.4847H102.928C103.006 72.4847 103.071 72.4889 103.125 72.4971C103.182 72.5012 103.234 72.5156 103.279 72.5403C103.324 72.5609 103.367 72.5897 103.408 72.6268C103.448 72.6638 103.493 72.7132 103.543 72.775L108.013 78.4803C107.997 78.3238 107.985 78.1737 107.976 78.0296C107.967 77.8814 107.964 77.7415 107.964 77.6097V72.4847H109.591ZM113.311 73.9358V76.239H116.282V77.6406H113.311V79.9931H117.13V81.4442H111.456V72.4847H117.13V73.9358H113.311Z" fill="#5AD8F1"/>
<path fill-rule="evenodd" clip-rule="evenodd" d="M59.6027 65.1211C77.2371 65.1211 91.5325 50.7461 91.5325 33.0136C91.5325 15.2812 77.2371 0.906128 59.6027 0.906128C41.9683 0.906128 27.6729 15.2812 27.6729 33.0136C27.6729 50.7461 41.9683 65.1211 59.6027 65.1211ZM59.6018 59.2342C75.4716 59.2342 88.3361 46.2979 88.3361 30.3402C88.3361 14.3826 75.4716 1.44638 59.6018 1.44638C43.7324 1.44638 30.8678 14.3826 30.8678 30.3402C30.8678 46.2979 43.7324 59.2342 59.6018 59.2342Z" fill="url(#paint0_radial_593_7014)"/>
<path fill-rule="evenodd" clip-rule="evenodd" d="M59.6027 65.1211C77.2371 65.1211 91.5325 50.7461 91.5325 33.0136C91.5325 15.2812 77.2371 0.906128 59.6027 0.906128C41.9683 0.906128 27.6729 15.2812 27.6729 33.0136C27.6729 50.7461 41.9683 65.1211 59.6027 65.1211ZM59.6018 59.2342C75.4716 59.2342 88.3361 46.2979 88.3361 30.3402C88.3361 14.3826 75.4716 1.44638 59.6018 1.44638C43.7324 1.44638 30.8678 14.3826 30.8678 30.3402C30.8678 46.2979 43.7324 59.2342 59.6018 59.2342Z" fill="url(#paint1_radial_593_7014)"/>
<defs>
<radialGradient id="paint0_radial_593_7014" cx="0" cy="0" r="1" gradientUnits="userSpaceOnUse" gradientTransform="translate(59.6027 29.7022) rotate(89.9998) scale(45.4253 41.9875)">
<stop/>
<stop offset="0.545611" stop-color="#5AD8F1" stop-opacity="0.31"/>
<stop offset="0.717347" stop-color="#5AE3FE"/>
<stop offset="0.808332" stop-color="#5AD8F1" stop-opacity="0.17"/>
</radialGradient>
<radialGradient id="paint1_radial_593_7014" cx="0" cy="0" r="1" gradientUnits="userSpaceOnUse" gradientTransform="translate(59.6027 6.6127) rotate(90) scale(74.1712 68.5579)">
<stop offset="0.355373" stop-color="#386CD1"/>
<stop offset="0.482278" stop-color="#2F3F94" stop-opacity="0.45"/>
<stop offset="0.717347" stop-color="#003EFF" stop-opacity="0"/>
<stop offset="0.808332" stop-color="#003EFF" stop-opacity="0"/>
</radialGradient>
</defs>
</svg>
