<svg width="21" height="17" viewBox="0 0 21 17" fill="none" xmlns="http://www.w3.org/2000/svg">
<path d="M7.12891 16.707H18.8789C19.2914 16.707 19.6445 16.5602 19.9383 16.2664C20.232 15.9727 20.3789 15.6195 20.3789 15.207V12.357H7.12891V16.707ZM0.378906 5.05703H5.62891V0.707031H1.87891C1.46641 0.707031 1.11328 0.853906 0.819531 1.14766C0.525781 1.44141 0.378906 1.79453 0.378906 2.20703V5.05703ZM0.378906 10.882H5.62891V6.55703H0.378906V10.882ZM1.87891 16.707H5.62891V12.357H0.378906V15.207C0.378906 15.6195 0.525781 15.9727 0.819531 16.2664C1.11328 16.5602 1.46641 16.707 1.87891 16.707ZM7.12891 10.882H20.3789V6.55703H7.12891V10.882ZM7.12891 5.05703H20.3789V2.20703C20.3789 1.79453 20.232 1.44141 19.9383 1.14766C19.6445 0.853906 19.2914 0.707031 18.8789 0.707031H7.12891V5.05703Z" fill="white"/>
</svg>
