<svg width="23" height="22" viewBox="0 0 23 22" fill="none" xmlns="http://www.w3.org/2000/svg">
<path d="M4.4976 16.7077C5.6176 15.9966 6.72427 15.4588 7.8176 15.0943C8.91094 14.7299 10.0976 14.5477 11.3776 14.5477C12.6576 14.5477 13.8487 14.7299 14.9509 15.0943C16.0532 15.4588 17.1643 15.9966 18.2843 16.7077C19.0665 15.7477 19.622 14.7788 19.9509 13.801C20.2798 12.8232 20.4443 11.7921 20.4443 10.7077C20.4443 8.1299 19.5776 5.97435 17.8443 4.24102C16.1109 2.50768 13.9554 1.64102 11.3776 1.64102C8.79983 1.64102 6.64427 2.50768 4.91094 4.24102C3.1776 5.97435 2.31094 8.1299 2.31094 10.7077C2.31094 11.7921 2.47983 12.8232 2.8176 13.801C3.15538 14.7788 3.71538 15.7477 4.4976 16.7077ZM11.3726 11.5077C10.3448 11.5077 9.47983 11.1549 8.7776 10.4494C8.07538 9.74386 7.72427 8.87719 7.72427 7.84939C7.72427 6.82159 8.07704 5.95657 8.78256 5.25435C9.48809 4.55213 10.3548 4.20102 11.3826 4.20102C12.4104 4.20102 13.2754 4.55378 13.9776 5.25931C14.6798 5.96484 15.0309 6.8315 15.0309 7.85931C15.0309 8.88711 14.6782 9.75213 13.9726 10.4543C13.2671 11.1566 12.4004 11.5077 11.3726 11.5077ZM11.3668 21.3743C9.88865 21.3743 8.49954 21.0943 7.19947 20.5343C5.8994 19.9743 4.76851 19.2099 3.8068 18.241C2.84512 17.2721 2.08872 16.1402 1.5376 14.8453C0.986493 13.5503 0.710938 12.1667 0.710938 10.6943C0.710938 9.22201 0.990938 7.83838 1.55094 6.54344C2.11094 5.24849 2.87538 4.12102 3.84427 3.16102C4.81316 2.20102 5.94508 1.44102 7.24003 0.881016C8.53496 0.321016 9.9186 0.0410156 11.3909 0.0410156C12.8633 0.0410156 14.2469 0.321016 15.5418 0.881016C16.8368 1.44102 17.9643 2.20102 18.9243 3.16102C19.8843 4.12102 20.6443 5.2499 21.2043 6.54768C21.7643 7.84546 22.0443 9.22976 22.0443 10.7006C22.0443 12.1714 21.7643 13.5536 21.2043 14.8473C20.6443 16.1409 19.8843 17.2721 18.9243 18.241C17.9643 19.2099 16.8342 19.9743 15.5342 20.5343C14.2341 21.0943 12.845 21.3743 11.3668 21.3743Z" fill="white"/>
</svg>
