<svg width="21" height="17" viewBox="0 0 21 17" fill="none" xmlns="http://www.w3.org/2000/svg">
<path d="M4.38281 16.707C3.28281 16.707 2.34115 16.3154 1.55781 15.532C0.774479 14.7487 0.382812 13.807 0.382812 12.707V4.70703C0.382812 3.60703 0.774479 2.66536 1.55781 1.88203C2.34115 1.0987 3.28281 0.707031 4.38281 0.707031H16.3828C17.4828 0.707031 18.4245 1.0987 19.2078 1.88203C19.9911 2.66536 20.3828 3.60703 20.3828 4.70703V12.707C20.3828 13.807 19.9911 14.7487 19.2078 15.532C18.4245 16.3154 17.4828 16.707 16.3828 16.707H4.38281ZM4.38281 4.95703H16.3828C16.8661 4.95703 17.3203 5.03203 17.7453 5.18203C18.1703 5.33203 18.5495 5.5487 18.8828 5.83203V4.70703C18.8828 4.00703 18.6411 3.41536 18.1578 2.93203C17.6745 2.4487 17.0828 2.20703 16.3828 2.20703H4.38281C3.68281 2.20703 3.09115 2.4487 2.60781 2.93203C2.12448 3.41536 1.88281 4.00703 1.88281 4.70703V5.83203C2.21615 5.5487 2.59531 5.33203 3.02031 5.18203C3.44531 5.03203 3.89948 4.95703 4.38281 4.95703ZM1.95781 8.35703L13.8828 11.232C13.9995 11.2654 14.1203 11.2695 14.2453 11.2445C14.3703 11.2195 14.4745 11.1654 14.5578 11.082L18.5578 7.73203C18.3411 7.3487 18.0411 7.04036 17.6578 6.80703C17.2745 6.5737 16.8495 6.45703 16.3828 6.45703H4.38281C3.79948 6.45703 3.28281 6.6362 2.83281 6.99453C2.38281 7.35286 2.09115 7.80703 1.95781 8.35703Z" fill="#464646"/>
</svg>
