<svg width="33" height="33" viewBox="0 0 33 33" fill="none" xmlns="http://www.w3.org/2000/svg">
<circle cx="16.4766" cy="16.8984" r="16" fill="#5AD8F1"/>
<g clip-path="url(#clip0_913_26747)">
<path d="M16.1535 19.8483C17.138 19.8483 17.974 19.5037 18.6615 18.8146C19.349 18.1255 19.6927 17.2887 19.6927 16.3042C19.6927 15.3197 19.3481 14.4837 18.659 13.7962C17.9699 13.1087 17.1331 12.765 16.1486 12.765C15.1641 12.765 14.3281 13.1095 13.6406 13.7987C12.9531 14.4878 12.6094 15.3246 12.6094 16.3091C12.6094 17.2936 12.9539 18.1296 13.6431 18.8171C14.3322 19.5046 15.169 19.8483 16.1535 19.8483ZM16.1461 18.64C15.4966 18.64 14.9462 18.4126 14.4948 17.958C14.0434 17.5033 13.8177 16.9512 13.8177 16.3017C13.8177 15.6522 14.045 15.1018 14.4997 14.6504C14.9544 14.199 15.5064 13.9733 16.1559 13.9733C16.8055 13.9733 17.3559 14.2006 17.8073 14.6553C18.2587 15.11 18.4844 15.662 18.4844 16.3115C18.4844 16.9611 18.257 17.5115 17.8024 17.9629C17.3477 18.4143 16.7956 18.64 16.1461 18.64ZM16.151 22.5566C14.1233 22.5566 12.2899 21.9803 10.651 20.8275C9.01215 19.6747 7.78993 18.1678 6.98438 16.3066C7.78993 14.4455 9.01215 12.9386 10.651 11.7858C12.2899 10.633 14.1233 10.0566 16.151 10.0566C18.1788 10.0566 20.0122 10.633 21.651 11.7858C23.2899 12.9386 24.5122 14.4455 25.3177 16.3066C24.5122 18.1678 23.2899 19.6747 21.651 20.8275C20.0122 21.9803 18.1788 22.5566 16.151 22.5566ZM16.1475 21.3066C17.8304 21.3066 19.3767 20.8518 20.7865 19.9421C22.1962 19.0323 23.2691 17.8205 24.0052 16.3066C23.2691 14.7928 22.1974 13.5809 20.79 12.6712C19.3826 11.7615 17.8375 11.3066 16.1546 11.3066C14.4717 11.3066 12.9253 11.7615 11.5156 12.6712C10.1059 13.5809 9.02604 14.7928 8.27604 16.3066C9.02604 17.8205 10.1047 19.0323 11.5121 19.9421C12.9195 20.8518 14.4646 21.3066 16.1475 21.3066Z" fill="white"/>
</g>
<defs>
<clipPath id="clip0_913_26747">
<rect width="20" height="20" fill="white" transform="translate(6.15234 6.72266)"/>
</clipPath>
</defs>
</svg>
